<svg xmlns="http://www.w3.org/2000/svg" viewBox="0 0 512 512">
  <rect width="512" height="512" rx="112" fill="#2A3A35"/>
  
  <path d="M256 160c-70.7 0-128 57.3-128 128v32h256v-32c0-70.7-57.3-128-128-128z" fill="#D48A55"/>
  <circle cx="256" cy="128" r="32" fill="#D48A55"/>
  <path d="M112 352h288v32c0 17.7-14.3 32-32 32H144c-17.7 0-32-14.3-32-32v-32z" fill="#EAE3D9"/>
  
  <path d="M384 128l16-48 48-16-48-16-16-48-16 48-48 16 48 16z" fill="#F9F6F0"/>
  <path d="M128 192l10-30 30-10-30-10-10-30-10 30-30 10 30 10z" fill="#F9F6F0"/>
</svg>
